<svg width="24" height="24" viewBox="0 0 24 24" fill="none" xmlns="http://www.w3.org/2000/svg">
<path d="M9.5011 12.8762L6.16107 8.70122C5.95316 8.44132 5.8492 8.31138 5.77527 8.16667C5.70968 8.03829 5.66175 7.90164 5.63277 7.76042C5.6001 7.60124 5.6001 7.43483 5.6001 7.102V6.56C5.6001 5.66392 5.6001 5.21587 5.77449 4.87362C5.92788 4.57256 6.17265 4.32779 6.47371 4.17439C6.81597 4 7.26401 4 8.1601 4H15.8401C16.7362 4 17.1842 4 17.5265 4.17439C17.8275 4.32779 18.0723 4.57256 18.2257 4.87362C18.4001 5.21587 18.4001 5.66392 18.4001 6.56V7.102C18.4001 7.43483 18.4001 7.60124 18.3674 7.76042C18.3384 7.90164 18.2905 8.03829 18.2249 8.16667C18.151 8.31138 18.047 8.44132 17.8391 8.70122L14.4991 12.8762M6.40014 4.8L12.0001 12L17.6001 4.8M14.8285 13.1716C16.3906 14.7337 16.3906 17.2663 14.8285 18.8284C13.2664 20.3905 10.7338 20.3905 9.17167 18.8284C7.60957 17.2663 7.60957 14.7337 9.17167 13.1716C10.7338 11.6095 13.2664 11.6095 14.8285 13.1716Z" stroke="white" stroke-width="2" stroke-linecap="round" stroke-linejoin="round"/>
</svg>
