<svg width="24" height="24" viewBox="0 0 24 24" fill="none" xmlns="http://www.w3.org/2000/svg">
<path d="M9.59999 11.2L12 13.6L20 5.59999M15.2 4.79999H8.63999C7.29586 4.79999 6.6238 4.79999 6.11041 5.06157C5.65882 5.29167 5.29167 5.65882 5.06157 6.11041C4.79999 6.6238 4.79999 7.29586 4.79999 8.63999V15.36C4.79999 16.7041 4.79999 17.3762 5.06157 17.8896C5.29167 18.3412 5.65882 18.7083 6.11041 18.9384C6.6238 19.2 7.29586 19.2 8.63999 19.2H15.36C16.7041 19.2 17.3762 19.2 17.8896 18.9384C18.3412 18.7083 18.7083 18.3412 18.9384 17.8896C19.2 17.3762 19.2 16.7041 19.2 15.36V12" stroke="white" stroke-width="2" stroke-linecap="round" stroke-linejoin="round"/>
</svg>
