<svg width="24" height="24" viewBox="0 0 24 24" fill="none" xmlns="http://www.w3.org/2000/svg">
<path d="M9.59999 19.7865V13.8665C9.59999 13.4185 9.59999 13.1944 9.68718 13.0233C9.76388 12.8728 9.88627 12.7504 10.0368 12.6737C10.2079 12.5865 10.4319 12.5865 10.88 12.5865H13.12C13.568 12.5865 13.7921 12.5865 13.9632 12.6737C14.1137 12.7504 14.2361 12.8728 14.3128 13.0233C14.4 13.1944 14.4 13.4185 14.4 13.8665V19.7865M11.2141 5.19771L5.7883 9.41781C5.4256 9.69991 5.24426 9.84096 5.11361 10.0176C4.99788 10.1741 4.91167 10.3503 4.85921 10.5378C4.79999 10.7493 4.79999 10.9791 4.79999 11.4386V17.2265C4.79999 18.1226 4.79999 18.5706 4.97438 18.9129C5.12777 19.2139 5.37254 19.4587 5.6736 19.6121C6.01586 19.7865 6.4639 19.7865 7.35999 19.7865H16.64C17.5361 19.7865 17.9841 19.7865 18.3264 19.6121C18.6274 19.4587 18.8722 19.2139 19.0256 18.9129C19.2 18.5706 19.2 18.1226 19.2 17.2265V11.4386C19.2 10.9791 19.2 10.7493 19.1408 10.5378C19.0883 10.3503 19.0021 10.1741 18.8864 10.0176C18.7557 9.84096 18.5744 9.69991 18.2117 9.41781L12.7858 5.19771C12.5048 4.97911 12.3642 4.86981 12.2091 4.82779C12.0721 4.79072 11.9278 4.79072 11.7909 4.82779C11.6357 4.86981 11.4952 4.97911 11.2141 5.19771Z" stroke="white" stroke-width="2" stroke-linecap="round" stroke-linejoin="round"/>
</svg>
