<svg width="24" height="24" viewBox="0 0 24 24" fill="none" xmlns="http://www.w3.org/2000/svg">
<path d="M13.6 4.21557V7.52C13.6 7.96804 13.6 8.19206 13.6872 8.36319C13.7639 8.51372 13.8863 8.63611 14.0368 8.71281C14.2079 8.8 14.4319 8.8 14.88 8.8H18.1844M18.4 10.3906V16.16C18.4 17.5041 18.4 18.1762 18.1384 18.6896C17.9083 19.1412 17.5411 19.5083 17.0896 19.7384C16.5762 20 15.9041 20 14.56 20H9.43998C8.09585 20 7.42379 20 6.9104 19.7384C6.45881 19.5083 6.09166 19.1412 5.86156 18.6896C5.59998 18.1762 5.59998 17.5041 5.59998 16.16V7.84C5.59998 6.49587 5.59998 5.82381 5.86156 5.31042C6.09166 4.85883 6.45881 4.49168 6.9104 4.26158C7.42379 4 8.09585 4 9.43998 4H12.0094C12.5964 4 12.8899 4 13.1661 4.06631C13.411 4.1251 13.6451 4.22207 13.8599 4.35366C14.1021 4.50208 14.3096 4.70963 14.7247 5.12471L17.2753 7.67529C17.6904 8.09037 17.8979 8.29792 18.0463 8.54012C18.1779 8.75485 18.2749 8.98896 18.3337 9.23384C18.4 9.51005 18.4 9.80356 18.4 10.3906Z" stroke="white" stroke-width="2" stroke-linecap="round" stroke-linejoin="round"/>
</svg>
