<svg width="24" height="24" viewBox="0 0 24 24" fill="none" xmlns="http://www.w3.org/2000/svg">
<path d="M9.11999 4.79999H6.07999C5.63195 4.79999 5.40792 4.79999 5.2368 4.88718C5.08627 4.96388 4.96388 5.08627 4.88718 5.2368C4.79999 5.40792 4.79999 5.63195 4.79999 6.07999V9.11999C4.79999 9.56803 4.79999 9.79205 4.88718 9.96318C4.96388 10.1137 5.08627 10.2361 5.2368 10.3128C5.40792 10.4 5.63195 10.4 6.07999 10.4H9.11999C9.56803 10.4 9.79205 10.4 9.96318 10.3128C10.1137 10.2361 10.2361 10.1137 10.3128 9.96318C10.4 9.79205 10.4 9.56803 10.4 9.11999V6.07999C10.4 5.63195 10.4 5.40792 10.3128 5.2368C10.2361 5.08627 10.1137 4.96388 9.96318 4.88718C9.79205 4.79999 9.56803 4.79999 9.11999 4.79999Z" stroke="white" stroke-width="2" stroke-linecap="round" stroke-linejoin="round"/>
<path d="M17.92 4.79999H14.88C14.4319 4.79999 14.2079 4.79999 14.0368 4.88718C13.8863 4.96388 13.7639 5.08627 13.6872 5.2368C13.6 5.40792 13.6 5.63195 13.6 6.07999V9.11999C13.6 9.56803 13.6 9.79205 13.6872 9.96318C13.7639 10.1137 13.8863 10.2361 14.0368 10.3128C14.2079 10.4 14.4319 10.4 14.88 10.4H17.92C18.368 10.4 18.5921 10.4 18.7632 10.3128C18.9137 10.2361 19.0361 10.1137 19.1128 9.96318C19.2 9.79205 19.2 9.56803 19.2 9.11999V6.07999C19.2 5.63195 19.2 5.40792 19.1128 5.2368C19.0361 5.08627 18.9137 4.96388 18.7632 4.88718C18.5921 4.79999 18.368 4.79999 17.92 4.79999Z" stroke="white" stroke-width="2" stroke-linecap="round" stroke-linejoin="round"/>
<path d="M17.92 13.6H14.88C14.4319 13.6 14.2079 13.6 14.0368 13.6872C13.8863 13.7639 13.7639 13.8863 13.6872 14.0368C13.6 14.2079 13.6 14.4319 13.6 14.88V17.92C13.6 18.368 13.6 18.5921 13.6872 18.7632C13.7639 18.9137 13.8863 19.0361 14.0368 19.1128C14.2079 19.2 14.4319 19.2 14.88 19.2H17.92C18.368 19.2 18.5921 19.2 18.7632 19.1128C18.9137 19.0361 19.0361 18.9137 19.1128 18.7632C19.2 18.5921 19.2 18.368 19.2 17.92V14.88C19.2 14.4319 19.2 14.2079 19.1128 14.0368C19.0361 13.8863 18.9137 13.7639 18.7632 13.6872C18.5921 13.6 18.368 13.6 17.92 13.6Z" stroke="white" stroke-width="2" stroke-linecap="round" stroke-linejoin="round"/>
<path d="M9.11999 13.6H6.07999C5.63195 13.6 5.40792 13.6 5.2368 13.6872C5.08627 13.7639 4.96388 13.8863 4.88718 14.0368C4.79999 14.2079 4.79999 14.4319 4.79999 14.88V17.92C4.79999 18.368 4.79999 18.5921 4.88718 18.7632C4.96388 18.9137 5.08627 19.0361 5.2368 19.1128C5.40792 19.2 5.63195 19.2 6.07999 19.2H9.11999C9.56803 19.2 9.79205 19.2 9.96318 19.1128C10.1137 19.0361 10.2361 18.9137 10.3128 18.7632C10.4 18.5921 10.4 18.368 10.4 17.92V14.88C10.4 14.4319 10.4 14.2079 10.3128 14.0368C10.2361 13.8863 10.1137 13.7639 9.96318 13.6872C9.79205 13.6 9.56803 13.6 9.11999 13.6Z" stroke="white" stroke-width="2" stroke-linecap="round" stroke-linejoin="round"/>
</svg>
