<svg width="24" height="24" viewBox="0 0 24 24" fill="none" xmlns="http://www.w3.org/2000/svg">
<path d="M20 19.2V17.6C20 16.1089 18.9802 14.856 17.6 14.5008M14.8 5.03259C15.9727 5.5073 16.8 6.65704 16.8 7.99999C16.8 9.34294 15.9727 10.4927 14.8 10.9674M16 19.2C16 17.709 16 16.9635 15.7564 16.3754C15.4316 15.5913 14.8087 14.9684 14.0246 14.6436C13.4365 14.4 12.691 14.4 11.2 14.4H8.8C7.30899 14.4 6.56348 14.4 5.97541 14.6436C5.19132 14.9684 4.56837 15.5913 4.24359 16.3754C4 16.9635 4 17.709 4 19.2M13.2 7.99999C13.2 9.7673 11.7673 11.2 10 11.2C8.23269 11.2 6.8 9.7673 6.8 7.99999C6.8 6.23268 8.23269 4.79999 10 4.79999C11.7673 4.79999 13.2 6.23268 13.2 7.99999Z" stroke="white" stroke-width="2" stroke-linecap="round" stroke-linejoin="round"/>
</svg>
