<svg width="24" height="24" viewBox="0 0 24 24" fill="none" xmlns="http://www.w3.org/2000/svg">
<rect width="24" height="24" fill="#383838"/>
<path d="M7.19999 16C7.19999 16.744 7.19999 17.116 7.28177 17.4212C7.50369 18.2494 8.1506 18.8963 8.97882 19.1183C9.28402 19.2 9.65601 19.2 10.4 19.2H15.36C16.7041 19.2 17.3762 19.2 17.8896 18.9385C18.3412 18.7084 18.7083 18.3412 18.9384 17.8896C19.2 17.3762 19.2 16.7042 19.2 15.36V8.64005C19.2 7.29592 19.2 6.62386 18.9384 6.11047C18.7083 5.65888 18.3412 5.29173 17.8896 5.06163C17.3762 4.80005 16.7041 4.80005 15.36 4.80005H10.4C9.65601 4.80005 9.28402 4.80005 8.97882 4.88183C8.1506 5.10375 7.50369 5.75066 7.28176 6.57888C7.19999 6.88408 7.19999 7.25607 7.19999 8.00005M12 8.80005L15.2 12M15.2 12L12 15.2M15.2 12H4.79999" stroke="white" stroke-width="2" stroke-linecap="round" stroke-linejoin="round"/>
</svg>
