<svg width="28" height="28" viewBox="0 0 28 28" fill="none" xmlns="http://www.w3.org/2000/svg">
<path d="M15.6231 23.3333H11.8897M19.3564 11.2C19.3564 9.71479 18.7664 8.29041 17.7162 7.24021C16.666 6.19 15.2416 5.60001 13.7564 5.60001C12.2712 5.60001 10.8468 6.19 9.79661 7.24021C8.7464 8.29041 8.15641 9.71479 8.15641 11.2C8.15641 14.0842 7.42884 16.0589 6.61609 17.3651C5.93052 18.4668 5.58774 19.0177 5.60031 19.1714C5.61423 19.3415 5.65028 19.4064 5.7874 19.5081C5.91123 19.6 6.46949 19.6 7.586 19.6H19.9268C21.0433 19.6 21.6016 19.6 21.7254 19.5081C21.8625 19.4064 21.8986 19.3415 21.9125 19.1714C21.9251 19.0177 21.5823 18.4668 20.8967 17.3651C20.084 16.0589 19.3564 14.0842 19.3564 11.2Z" stroke="black" stroke-width="2" stroke-linecap="round" stroke-linejoin="round"/>
</svg>
