<svg width="24" height="24" viewBox="0 0 24 24" fill="none" xmlns="http://www.w3.org/2000/svg">
<path d="M19.2 10.4H4.80005M15.2 4V7.2M8.80005 4V7.2M8.64005 20H15.36C16.7042 20 17.3762 20 17.8896 19.7384C18.3412 19.5083 18.7084 19.1412 18.9385 18.6896C19.2 18.1762 19.2 17.5041 19.2 16.16V9.44C19.2 8.09587 19.2 7.42381 18.9385 6.91042C18.7084 6.45883 18.3412 6.09168 17.8896 5.86158C17.3762 5.6 16.7042 5.6 15.36 5.6H8.64005C7.29592 5.6 6.62386 5.6 6.11047 5.86158C5.65888 6.09168 5.29173 6.45883 5.06163 6.91042C4.80005 7.42381 4.80005 8.09587 4.80005 9.44V16.16C4.80005 17.5041 4.80005 18.1762 5.06163 18.6896C5.29173 19.1412 5.65888 19.5083 6.11047 19.7384C6.62386 20 7.29592 20 8.64005 20Z" stroke="white" stroke-width="2" stroke-linecap="round" stroke-linejoin="round"/>
</svg>
