<svg width="24" height="24" viewBox="0 0 24 24" fill="none" xmlns="http://www.w3.org/2000/svg">
<rect width="24" height="24" fill="#383838"/>
<path d="M9.88009 17.8969L10.3476 18.9484C10.4866 19.2615 10.7135 19.5274 11.0006 19.7141C11.2878 19.9007 11.6229 20.0001 11.9654 20C12.3079 20.0001 12.6431 19.9007 12.9302 19.7141C13.2174 19.5274 13.4442 19.2615 13.5832 18.9484L14.0508 17.8969C14.2172 17.5238 14.4972 17.2127 14.8508 17.008C15.2066 16.8027 15.6182 16.7153 16.0268 16.7582L17.1708 16.88C17.5113 16.916 17.855 16.8525 18.1601 16.6971C18.4652 16.5417 18.7187 16.3011 18.8899 16.0044C19.0612 15.708 19.1428 15.3682 19.1249 15.0263C19.1069 14.6844 18.99 14.355 18.7885 14.0782L18.1112 13.1476C17.87 12.8137 17.7411 12.4119 17.7432 12C17.7431 11.5893 17.8732 11.1891 18.1148 10.8569L18.7921 9.92622C18.9936 9.6494 19.1104 9.32006 19.1284 8.97814C19.1464 8.63622 19.0648 8.29643 18.8934 8C18.7223 7.70339 18.4688 7.46279 18.1637 7.30738C17.8585 7.15197 17.5148 7.08842 17.1743 7.12444L16.0303 7.24622C15.6218 7.28913 15.2101 7.2017 14.8543 6.99644C14.5 6.7906 14.22 6.47789 14.0543 6.10311L13.5832 5.05156C13.4442 4.73854 13.2174 4.47257 12.9302 4.28592C12.6431 4.09927 12.3079 3.99994 11.9654 4C11.6229 3.99994 11.2878 4.09927 11.0006 4.28592C10.7135 4.47257 10.4866 4.73854 10.3476 5.05156L9.88009 6.10311C9.71443 6.47789 9.43438 6.7906 9.08008 6.99644C8.72426 7.2017 8.31262 7.28913 7.90408 7.24622L6.75653 7.12444C6.41599 7.08842 6.07232 7.15197 5.76718 7.30738C5.46204 7.46279 5.20854 7.70339 5.03742 8C4.86607 8.29643 4.78444 8.63622 4.80243 8.97814C4.82042 9.32006 4.93725 9.6494 5.13875 9.92622L5.81608 10.8569C6.05764 11.1891 6.18771 11.5893 6.18764 12C6.18771 12.4107 6.05764 12.8109 5.81608 13.1431L5.13875 14.0738C4.93725 14.3506 4.82042 14.6799 4.80243 15.0219C4.78444 15.3638 4.86607 15.7036 5.03742 16C5.20871 16.2965 5.46224 16.5369 5.76734 16.6923C6.07243 16.8477 6.41602 16.9113 6.75653 16.8756L7.90053 16.7538C8.30906 16.7109 8.7207 16.7983 9.07653 17.0036C9.43215 17.2088 9.7135 17.5216 9.88009 17.8969Z" stroke="white" stroke-width="2" stroke-linecap="round" stroke-linejoin="round"/>
<path d="M11.964 14.4C13.2895 14.4 14.364 13.3255 14.364 12C14.364 10.6745 13.2895 9.6 11.964 9.6C10.6385 9.6 9.56399 10.6745 9.56399 12C9.56399 13.3255 10.6385 14.4 11.964 14.4Z" stroke="white" stroke-width="2" stroke-linecap="round" stroke-linejoin="round"/>
</svg>
