<svg width="24" height="24" viewBox="0 0 24 24" fill="none" xmlns="http://www.w3.org/2000/svg">
<path d="M8.8 19.2H15.2M12 16V19.2M7.84 16H16.16C17.5041 16 18.1762 16 18.6896 15.7384C19.1412 15.5083 19.5083 15.1412 19.7384 14.6896C20 14.1762 20 13.5041 20 12.16V8.63999C20 7.29586 20 6.6238 19.7384 6.11041C19.5083 5.65882 19.1412 5.29167 18.6896 5.06157C18.1762 4.79999 17.5041 4.79999 16.16 4.79999H7.84C6.49587 4.79999 5.82381 4.79999 5.31042 5.06157C4.85883 5.29167 4.49168 5.65882 4.26158 6.11041C4 6.6238 4 7.29586 4 8.63999V12.16C4 13.5041 4 14.1762 4.26158 14.6896C4.49168 15.1412 4.85883 15.5083 5.31042 15.7384C5.82381 16 6.49587 16 7.84 16Z" stroke="white" stroke-width="2" stroke-linecap="round" stroke-linejoin="round"/>
</svg>
