<svg width="28" height="28" viewBox="0 0 28 28" fill="none" xmlns="http://www.w3.org/2000/svg">
<path d="M21.4667 22.4C21.4667 21.0975 21.4667 20.4462 21.3059 19.9163C20.944 18.7231 20.0102 17.7894 18.8171 17.4274C18.2871 17.2667 17.6358 17.2667 16.3333 17.2667H11.6667C10.3641 17.2667 9.71287 17.2667 9.18293 17.4274C7.98975 17.7894 7.05603 18.7231 6.69408 19.9163C6.53333 20.4462 6.53333 21.0975 6.53333 22.4M18.2 9.80001C18.2 12.1196 16.3196 14 14 14C11.6804 14 9.79999 12.1196 9.79999 9.80001C9.79999 7.48041 11.6804 5.60001 14 5.60001C16.3196 5.60001 18.2 7.48041 18.2 9.80001Z" stroke="black" stroke-width="2" stroke-linecap="round" stroke-linejoin="round"/>
</svg>
