<svg width="140" height="131" viewBox="0 0 140 131" fill="none" xmlns="http://www.w3.org/2000/svg">
<g clip-path="url(#clip0_192_460)">
<path d="M70.719 27.1498C91.579 6.90981 116.979 3.76979 129.169 16.8698C141.409 30.0098 135.529 54.9598 113.189 75.4498L98.909 88.7498" stroke="black" stroke-width="4" stroke-linecap="round" stroke-linejoin="round"/>
<path d="M88.259 97.7698L74.209 110.86C74.059 111 73.869 111.1 73.729 111.25C52.869 131.49 25.859 135.15 13.669 122.06C1.42899 108.92 1.90899 93.2898 24.249 72.7998" stroke="black" stroke-width="4" stroke-linecap="round" stroke-linejoin="round"/>
<path d="M85.389 56.9199L57.699 81.7499" stroke="black" stroke-width="4" stroke-linecap="round" stroke-linejoin="round"/>
<path d="M115.959 72.7997C113.969 74.8897 115.799 72.6697 115.959 72.7997ZM115.959 72.7997C138.189 91.5097 138.909 108.03 127.109 121.49C115.269 135 93.0389 134.44 70.3989 114.28" stroke="black" stroke-width="4" stroke-linecap="round" stroke-linejoin="round"/>
<path d="M42.499 88.9298L28.059 76.2698C27.899 76.1298 27.779 75.9598 27.629 75.8298C5.39903 57.1198 -0.970973 30.6098 10.829 17.1598C22.669 3.64979 48.089 6.99979 70.719 27.1598L85.389 40.0298" stroke="black" stroke-width="4" stroke-linecap="round" stroke-linejoin="round"/>
<path d="M87.289 81.7497L57.709 57.4397" stroke="black" stroke-width="4" stroke-linecap="round" stroke-linejoin="round"/>
</g>
<defs>
<clipPath id="clip0_192_460">
<rect width="139.44" height="130.67" fill="white"/>
</clipPath>
</defs>
</svg>
